<svg xmlns="http://www.w3.org/2000/svg" width="24" height="24" viewBox="0 0 24 24" fill="none" stroke="currentColor" stroke-width="2" stroke-linecap="round" stroke-linejoin="round" class="lucide lucide-sparkles h-6 w-6" aria-hidden="true">
    <!-- 1. White Circle Background (draw first) -->
    <circle cx="12" cy="12" r="11" fill="black" stroke="none"/>
    
    <!-- 2. Scaled Original Icon Paths (draw second, centered and shrunk) -->
    <g transform="translate(4, 4) scale(0.70)" color="white">
        <path d="M11.017 2.814a1 1 0 0 1 1.966 0l1.051 5.558a2 2 0 0 0 1.594 1.594l5.558 1.051a1 1 0 0 1 0 1.966l-5.558 1.051a2 2 0 0 0-1.594 1.594l-1.051 5.558a1 1 0 0 1-1.966 0l-1.051-5.558a2 2 0 0 0-1.594-1.594l-5.558-1.051a1 1 0 0 1 0-1.966l5.558-1.051a2 2 0 0 0 1.594-1.594z"></path>
        <!-- <path d="M20 2v4"></path> -->
        <!-- <path d="M22 4h-4"></path> -->
        <!-- <circle cx="4" cy="20" r="2"></circle> -->
    </g>
</svg>
